<?xml version="1.0" encoding="UTF-8"?>
<svg xmlns="http://www.w3.org/2000/svg" xmlns:xlink="http://www.w3.org/1999/xlink" width="27px" height="27px" viewBox="0 0 27 27" version="1.1">
<g id="surface1">
<path style=" stroke:none;fill-rule:nonzero;fill:rgb(0%,0%,0%);fill-opacity:1;" d="M 0 13.5 C 0 9.773438 1.316406 6.589844 3.957031 3.953125 C 6.589844 1.316406 9.773438 0 13.5 0 C 17.226562 0 20.40625 1.316406 23.046875 3.953125 C 25.679688 6.589844 27 9.773438 27 13.5 C 27 17.226562 25.683594 20.40625 23.046875 23.042969 C 20.410156 25.679688 17.226562 27 13.5 27 C 9.773438 27 6.589844 25.683594 3.957031 23.042969 C 1.316406 20.410156 0 17.226562 0 13.5 Z M 1.476562 13.5 C 1.476562 16.804688 2.652344 19.632812 5.007812 21.992188 C 7.363281 24.34375 10.195312 25.523438 13.5 25.523438 C 16.804688 25.523438 19.636719 24.347656 21.992188 21.992188 C 24.347656 19.636719 25.523438 16.804688 25.523438 13.5 C 25.523438 10.195312 24.347656 7.363281 21.992188 5.007812 C 19.636719 2.652344 16.804688 1.476562 13.5 1.476562 C 10.195312 1.476562 7.367188 2.652344 5.007812 5.007812 C 2.652344 7.363281 1.476562 10.195312 1.476562 13.5 Z M 5.273438 16.398438 C 5.203125 16.328125 5.203125 16.257812 5.273438 16.1875 C 5.414062 16.046875 5.589844 15.996094 5.800781 16.03125 C 6.011719 16.066406 6.132812 16.101562 6.167969 16.136719 C 6.414062 16.242188 6.6875 16.480469 6.988281 16.847656 C 7.285156 17.21875 7.523438 17.472656 7.699219 17.613281 C 8.542969 18.316406 9.402344 18.367188 10.28125 17.769531 C 10.351562 17.523438 10.46875 17.3125 10.625 17.136719 C 10.785156 16.960938 10.933594 16.839844 11.074219 16.769531 C 11.214844 16.699219 11.460938 16.59375 11.8125 16.453125 C 10.652344 16.347656 9.710938 16.144531 8.992188 15.847656 C 8.269531 15.546875 7.699219 15.167969 7.277344 14.710938 C 6.714844 14.078125 6.371094 13.253906 6.25 12.234375 C 6.125 11.214844 6.203125 10.28125 6.484375 9.4375 C 6.695312 8.910156 6.996094 8.4375 7.382812 8.015625 C 7.101562 7.136719 7.152344 6.132812 7.539062 5.007812 C 8.664062 5.078125 9.683594 5.464844 10.597656 6.167969 C 12.355469 5.710938 14.183594 5.695312 16.082031 6.117188 C 16.328125 5.941406 16.707031 5.722656 17.21875 5.457031 C 17.726562 5.195312 18.367188 5.042969 19.140625 5.007812 C 19.28125 5.394531 19.378906 5.851562 19.433594 6.378906 C 19.484375 6.90625 19.457031 7.398438 19.351562 7.855469 C 20.160156 8.699219 20.582031 9.824219 20.617188 11.230469 C 20.617188 12.355469 20.425781 13.289062 20.039062 14.027344 C 19.652344 14.765625 18.964844 15.378906 17.980469 15.871094 C 17.3125 16.1875 16.433594 16.382812 15.34375 16.453125 C 15.835938 16.699219 16.199219 16.953125 16.425781 17.21875 C 16.65625 17.480469 16.804688 17.894531 16.875 18.457031 L 16.875 20.117188 L 16.925781 21.726562 C 17.03125 21.902344 17.15625 22.050781 17.296875 22.175781 C 17.4375 22.296875 17.558594 22.386719 17.664062 22.4375 C 17.769531 22.492188 17.804688 22.570312 17.769531 22.675781 C 17.734375 22.78125 17.59375 22.832031 17.347656 22.832031 C 16.75 22.832031 16.277344 22.621094 15.925781 22.199219 C 15.820312 22.023438 15.765625 21.8125 15.765625 21.566406 L 15.765625 19.035156 C 15.765625 18.753906 15.695312 18.554688 15.554688 18.429688 C 15.414062 18.308594 15.273438 18.226562 15.132812 18.191406 L 15.132812 21.515625 C 15.132812 22.113281 15.203125 22.5 15.34375 22.675781 C 15.484375 22.851562 15.574219 23.027344 15.609375 23.203125 C 15.644531 23.238281 15.617188 23.265625 15.53125 23.28125 C 15.441406 23.300781 15.292969 23.273438 15.082031 23.203125 C 14.625 23.097656 14.308594 22.859375 14.132812 22.492188 C 13.957031 22.121094 13.867188 21.726562 13.867188 21.304688 L 13.867188 18.035156 L 13.183594 18.035156 L 13.183594 21.304688 C 13.183594 21.726562 13.09375 22.132812 12.917969 22.515625 C 12.671875 23.011719 12.214844 23.273438 11.546875 23.308594 C 11.441406 23.273438 11.390625 23.238281 11.390625 23.203125 C 11.425781 23.167969 11.53125 22.992188 11.707031 22.675781 C 11.742188 22.605469 11.785156 22.464844 11.839844 22.253906 C 11.890625 22.042969 11.917969 21.796875 11.917969 21.515625 L 11.917969 18.191406 C 11.777344 18.226562 11.644531 18.308594 11.523438 18.429688 C 11.398438 18.554688 11.335938 18.757812 11.335938 19.039062 L 11.335938 21.570312 C 11.335938 21.8125 11.285156 22.027344 11.179688 22.203125 C 10.863281 22.625 10.386719 22.835938 9.757812 22.835938 C 9.511719 22.835938 9.371094 22.78125 9.335938 22.675781 C 9.296875 22.605469 9.308594 22.542969 9.359375 22.492188 C 9.414062 22.4375 9.492188 22.378906 9.597656 22.308594 C 9.703125 22.238281 9.773438 22.183594 9.808594 22.148438 C 9.949219 22.042969 10.054688 21.902344 10.125 21.726562 C 10.230469 21.585938 10.257812 21.21875 10.203125 20.621094 C 10.152344 20.023438 10.144531 19.636719 10.179688 19.460938 C 9.261719 19.777344 8.332031 19.617188 7.382812 18.984375 C 7.101562 18.703125 6.820312 18.296875 6.539062 17.773438 C 6.328125 17.382812 5.90625 16.925781 5.273438 16.398438 Z M 5.273438 16.398438 "/>
</g>
</svg>
